<?xml version="1.0" encoding="UTF-8"?>
<svg xmlns="http://www.w3.org/2000/svg" viewBox="0 0 360 360">
  <defs>
    <style>
      .cls-1 {
        stroke: #000;
      }

      .cls-1, .cls-2, .cls-3, .cls-4 {
        fill: none;
        stroke-miterlimit: 10;
      }

      .cls-1, .cls-4 {
        stroke-width: 4px;
      }

      .cls-2, .cls-3 {
        stroke-width: 3px;
      }

      .cls-2, .cls-4 {
        stroke: #7f1d1e;
      }

      .cls-5 {
        fill: #7f1c1f;
      }

      .cls-3 {
        stroke: #7f1c1f;
      }

      .cls-6 {
        fill: #7f1d1e;
      }
    </style>
  </defs>
  <g id="Layer_3" data-name="Layer 3">
    <path d="m253.67,176.43c0-8.93-6.09-16.16-13.61-16.16l.04,31.86c7.52,0,13.61-7.23,13.61-16.16"/>
  </g>
  <g id="Layer_2" data-name="Layer 2">
    <path class="cls-4" d="m112.89,141.72c4.27-13.8,17.14-23.83,32.35-23.83h60.16c18.71,0,33.87,15.16,33.87,33.86v50.6c0,13.87-8.33,25.79-20.27,31.03"/>
    <path class="cls-4" d="m111.38,201.39v.96c0,14.07,8.58,26.14,20.79,31.25"/>
    <line class="cls-4" x1="194.61" y1="236.22" x2="156.56" y2="236.22"/>
    <rect class="cls-4" x="135.17" y="137.81" width="80.99" height="78.09" rx="23.11" ry="23.11"/>
    <circle class="cls-6" cx="174.61" cy="85.03" r="9.07"/>
    <line class="cls-2" x1="174.89" y1="117.63" x2="174.61" y2="94.1"/>
    <circle cx="146.23" cy="240.14" r="15"/>
    <circle cx="205.55" cy="239.98" r="15"/>
    <line class="cls-1" x1="124.72" y1="146.72" x2="67.74" y2="146.72"/>
    <line class="cls-1" x1="102.76" y1="163.69" x2="33.74" y2="163.69"/>
    <line class="cls-1" x1="124.87" y1="180.55" x2="52.45" y2="180.55"/>
    <line class="cls-1" x1="118.62" y1="197.39" x2="61.65" y2="197.39"/>
  </g>
  <g id="Layer_4" data-name="Layer 4">
    <circle class="cls-5" cx="162.7" cy="166.23" r="4.95"/>
    <path class="cls-3" d="m157.72,185.83c0,7.58,8.2,13.72,18.33,13.72"/>
    <path class="cls-3" d="m193.87,185.8c0,7.58-8.2,13.72-18.33,13.72"/>
    <circle class="cls-5" cx="188.36" cy="166.54" r="4.95"/>
  </g>
</svg>